<svg width="30" height="26" viewBox="0 0 30 26" xmlns="http://www.w3.org/2000/svg">
<path d="M11.9819 15.6152C11.9886 15.0952 11.8444 14.5818 11.5626 14.1224C11.2808 13.6629 10.8705 13.2721 10.3694 12.9859C9.86835 12.6997 9.29259 12.5273 8.69511 12.4845C8.09764 12.4418 7.49764 12.5301 6.95032 12.7413C6.40301 12.9526 5.92595 13.2799 5.56304 13.6933C5.20014 14.1066 4.96304 14.5927 4.87357 15.1068C4.78409 15.6209 4.84511 16.1465 5.05101 16.6353C5.25691 17.124 5.60107 17.5602 6.05184 17.9037C5.6655 18.1905 5.35433 18.5456 5.13914 18.9454C4.92395 19.3451 4.80971 19.7803 4.80405 20.2218L4.78937 22.5476C4.78807 22.7533 4.88097 22.9511 5.04763 23.0975C5.21428 23.244 5.44105 23.3271 5.67804 23.3286L7.46516 23.3398C7.70215 23.3413 7.92995 23.2611 8.09844 23.1168C8.26694 22.9724 8.36232 22.7758 8.36362 22.5702C8.36492 22.3646 8.27202 22.1668 8.10536 22.0203C7.9387 21.8739 7.71194 21.7908 7.47495 21.7893L6.58139 21.7836L6.59117 20.2331C6.59377 19.8218 6.78454 19.4286 7.12153 19.14C7.45852 18.8513 7.91411 18.6908 8.38809 18.6938C8.86206 18.6968 9.31559 18.863 9.64891 19.1559C9.98222 19.4488 10.168 19.8444 10.1654 20.2556L10.1507 22.5815C10.1494 22.7871 10.2423 22.9849 10.409 23.1313C10.5757 23.2778 10.8024 23.3609 11.0394 23.3624C11.2764 23.3639 11.5042 23.2837 11.6727 23.1393C11.8412 22.995 11.9366 22.7984 11.9379 22.5928L11.9526 20.2669C11.9525 19.8254 11.8437 19.3888 11.6336 18.9864C11.4235 18.5839 11.1168 18.2249 10.7341 17.9333C11.1205 17.6465 11.4316 17.2914 11.6468 16.8916C11.862 16.4919 11.9763 16.0567 11.9819 15.6152ZM6.62053 15.5814C6.62247 15.2747 6.72917 14.9756 6.92715 14.7219C7.12514 14.4681 7.4055 14.2711 7.7328 14.1558C8.06009 14.0405 8.41962 14.0121 8.76591 14.0741C9.1122 14.1361 9.4297 14.2858 9.67827 14.5042C9.92683 14.7227 10.0953 15 10.1624 15.3012C10.2294 15.6025 10.1921 15.914 10.055 16.1965C9.91795 16.4789 9.68736 16.7197 9.3924 16.8882C9.09743 17.0567 8.75133 17.1455 8.39787 17.1432C7.9239 17.1402 7.47037 16.974 7.13705 16.6811C6.80373 16.3882 6.61794 15.9926 6.62053 15.5814Z"/>
<path d="M23.2433 18.0122C23.7964 17.6016 24.1915 17.0539 24.3754 16.4425C24.5594 15.8311 24.5235 15.1852 24.2725 14.5913C24.0216 13.9974 23.5676 13.4839 22.9713 13.1196C22.3751 12.7553 21.6651 12.5576 20.9365 12.553C20.2079 12.5484 19.4955 12.7371 18.8947 13.0939C18.2939 13.4506 17.8334 13.9583 17.575 14.549C17.3166 15.1397 17.2725 15.7851 17.4487 16.3988C17.625 17.0125 18.0131 17.5651 18.561 17.9827C18.1747 18.2694 17.8635 18.6246 17.6483 19.0243C17.4331 19.4241 17.3189 19.8593 17.3132 20.3007L17.2985 22.6266C17.2972 22.8322 17.3901 23.03 17.5568 23.1764C17.7234 23.3229 17.9502 23.406 18.1872 23.4075C18.4242 23.409 18.652 23.3287 18.8205 23.1844C18.989 23.0401 19.0844 22.8435 19.0856 22.6379L19.1003 20.312C19.1029 19.9008 19.2937 19.5076 19.6307 19.2189C19.9677 18.9302 20.4233 18.7697 20.8972 18.7727C21.3712 18.7757 21.8247 18.942 22.1581 19.2349C22.4914 19.5278 22.6772 19.9233 22.6746 20.3346L22.6648 21.8851L21.7712 21.8795C21.5342 21.878 21.3064 21.9582 21.138 22.1026C20.9695 22.2469 20.8741 22.4435 20.8728 22.6491C20.8715 22.8547 20.9644 23.0525 21.131 23.199C21.2977 23.3454 21.5245 23.4286 21.7614 23.4301L23.5486 23.4413C23.7856 23.4428 24.0134 23.3626 24.1819 23.2182C24.3503 23.0739 24.4457 22.8773 24.447 22.6717L24.4617 20.3458C24.4616 19.9043 24.3529 19.4678 24.1428 19.0653C23.9326 18.6629 23.626 18.3038 23.2433 18.0122ZM19.1297 15.6603C19.1316 15.3537 19.2383 15.0545 19.4363 14.8008C19.6343 14.547 19.9147 14.3501 20.242 14.2348C20.5692 14.1195 20.9288 14.091 21.2751 14.153C21.6214 14.2151 21.9389 14.3647 22.1874 14.5832C22.436 14.8016 22.6045 15.079 22.6715 15.3802C22.7386 15.6814 22.7012 15.9929 22.5642 16.2754C22.4271 16.5579 22.1965 16.7986 21.9016 16.9671C21.6066 17.1356 21.2605 17.2244 20.907 17.2222C20.4331 17.2192 19.9795 17.0529 19.6462 16.76C19.3129 16.4671 19.1271 16.0716 19.1297 15.6603Z"/>
<path d="M7.54342 10.9354C7.78041 10.9368 8.00821 10.8566 8.1767 10.7123C8.34519 10.5679 8.44058 10.3713 8.44188 10.1657L8.47124 5.51403C8.47254 5.30841 8.56792 5.11181 8.73642 4.96748C8.90491 4.82314 9.13271 4.74289 9.36969 4.74439L18.3053 4.80079C18.5423 4.80228 18.7691 4.8854 18.9357 5.03185C19.1024 5.1783 19.1953 5.37609 19.194 5.58171L19.1842 7.13227C19.1831 7.23484 19.1585 7.33616 19.1119 7.43035C19.0653 7.52455 18.9976 7.60975 18.9127 7.68102C18.7453 7.8232 18.5202 7.90253 18.2858 7.90191L11.1372 7.85679C10.9003 7.85529 10.6725 7.93554 10.504 8.07988C10.3355 8.22421 10.2401 8.42081 10.2388 8.62643C10.2375 8.83205 10.3304 9.02984 10.4971 9.17629C10.6637 9.32274 10.8905 9.40585 11.1275 9.40735L18.276 9.45247C18.9869 9.45695 19.6703 9.21621 20.1758 8.78321C20.6813 8.3502 20.9674 7.7604 20.9713 7.14355L20.9811 5.59299C20.985 4.97613 20.7063 4.38276 20.2063 3.94341C19.7064 3.50406 19.0261 3.25471 18.3151 3.25023L9.37948 3.19383C8.66852 3.18934 7.98513 3.43008 7.47965 3.86309C6.97417 4.2961 6.68801 4.8859 6.68411 5.50275L6.65475 10.1544C6.65346 10.36 6.74635 10.5578 6.91301 10.7043C7.07967 10.8507 7.30644 10.9339 7.54342 10.9354Z"/>
</svg>
