<svg width="30" height="26" viewBox="0 0 30 26" xmlns="http://www.w3.org/2000/svg">
<path fill-rule="evenodd" clip-rule="evenodd" d="M13.5436 3.15571C14.4312 2.52237 15.7148 2.53047 16.5944 3.17497L26.0816 10.1265C26.6224 10.5227 26.9328 11.1066 26.9289 11.7202L26.87 21.0562C26.8628 22.198 25.7902 23.1169 24.4742 23.1086L5.41269 22.9883C4.09676 22.9799 3.03584 22.0476 3.04304 20.9058L3.10197 11.5698C3.10584 10.9562 3.42361 10.3763 3.96932 9.98693L13.5436 3.15571ZM15.0589 4.75357L5.48466 11.5848L5.42574 20.9208L10.1911 20.9509L10.214 17.3329C10.2212 16.1911 11.2938 15.2723 12.6097 15.2806L17.3751 15.3106C18.6911 15.319 19.7519 16.2513 19.7447 17.3931L19.7219 21.0111L24.4873 21.0411L24.5462 11.7051L15.0589 4.75357ZM17.3392 20.996L17.362 17.3781L12.5967 17.348L12.5738 20.966L17.3392 20.996Z"/>
</svg>
