<svg width="30" height="26" viewBox="0 0 30 26" xmlns="http://www.w3.org/2000/svg">
<path d="M6.05145 10.1912C6.21935 10.0485 6.41811 9.93607 6.63633 9.86028C6.85456 9.7845 7.08796 9.74685 7.32315 9.74952C7.79712 9.75251 8.25065 9.91874 8.58397 10.2116C8.91729 10.5045 9.10308 10.9001 9.10049 11.3114C9.09919 11.517 9.19209 11.7148 9.35875 11.8612C9.52541 12.0077 9.75217 12.0908 9.98916 12.0923C10.2261 12.0938 10.4539 12.0135 10.6224 11.8692C10.7909 11.7249 10.8863 11.5283 10.8876 11.3226C10.8875 10.8811 10.7788 10.4445 10.5687 10.0421C10.3585 9.63965 10.0519 9.28062 9.66918 8.98901C10.2224 8.57842 10.6174 8.03073 10.8013 7.41931C10.9853 6.8079 10.9494 6.16197 10.6985 5.56808C10.4475 4.97419 9.99349 4.46069 9.39725 4.0964C8.80101 3.73211 8.09102 3.53442 7.3624 3.52982C6.63379 3.52522 5.92136 3.71393 5.32056 4.07067C4.71977 4.42741 4.25932 4.93513 4.00089 5.52581C3.74246 6.11649 3.69841 6.76191 3.87464 7.3756C4.05087 7.98928 4.43896 8.54192 4.9869 8.95946C4.92406 9.00558 4.85233 9.0439 4.79842 9.09008C4.46479 9.37619 4.19952 9.71664 4.01776 10.092C3.83599 10.4673 3.74131 10.8702 3.73911 11.2775C3.73781 11.4831 3.83071 11.6809 3.99737 11.8274C4.16402 11.9738 4.39079 12.0569 4.62778 12.0584C4.86477 12.0599 5.09256 11.9797 5.26106 11.8354C5.42955 11.691 5.52494 11.4944 5.52623 11.2888C5.52616 11.0847 5.57252 10.8827 5.66265 10.6944C5.75278 10.506 5.8849 10.335 6.05145 10.1912ZM7.35251 5.09784C7.70597 5.10007 8.05092 5.19319 8.34373 5.36542C8.63655 5.53765 8.86408 5.78126 8.99756 6.06545C9.13103 6.34963 9.16445 6.66162 9.0936 6.96196C9.02274 7.2623 8.85079 7.53751 8.59949 7.75278C8.34819 7.96806 8.02882 8.11372 7.68177 8.17137C7.33473 8.22901 6.97559 8.19603 6.64977 8.07661C6.32396 7.95719 6.0461 7.75669 5.85134 7.50046C5.65658 7.24424 5.55366 6.94379 5.55559 6.63712C5.55819 6.22588 5.74896 5.83268 6.08595 5.54401C6.42294 5.25534 6.87853 5.09485 7.35251 5.09784Z"/>
<path d="M11.7805 11.3283C11.7793 11.5339 11.8722 11.7317 12.0388 11.8781C12.2055 12.0246 12.4322 12.1077 12.6692 12.1092C12.9062 12.1107 13.134 12.0304 13.3025 11.8861C13.471 11.7418 13.5664 11.5452 13.5677 11.3396C13.5703 10.9283 13.761 10.5351 14.098 10.2464C14.435 9.95777 14.8906 9.79728 15.3646 9.80027C15.8386 9.80326 16.2921 9.96949 16.6254 10.2624C16.9587 10.5553 17.1445 10.9509 17.1419 11.3621C17.1406 11.5677 17.2335 11.7655 17.4002 11.912C17.5668 12.0584 17.7936 12.1415 18.0306 12.143C18.2676 12.1445 18.4954 12.0643 18.6639 11.9199C18.8324 11.7756 18.9278 11.579 18.9291 11.3734C18.929 10.9319 18.8202 10.4953 18.6101 10.0928C18.4 9.6904 18.0933 9.33137 17.7106 9.03976C18.2638 8.62917 18.6588 8.08148 18.8428 7.47006C19.0267 6.85865 18.9908 6.21272 18.7399 5.61883C18.4889 5.02494 18.0349 4.51144 17.4387 4.14715C16.8424 3.78286 16.1325 3.58517 15.4038 3.58057C14.6752 3.57597 13.9628 3.76469 13.362 4.12142C12.7612 4.47816 12.3008 4.98588 12.0423 5.57656C11.7839 6.16724 11.7399 6.81266 11.9161 7.42635C12.0923 8.04003 12.4804 8.59267 13.0283 9.01021C12.642 9.29697 12.3308 9.6521 12.1156 10.0519C11.9005 10.4516 11.7862 10.8868 11.7805 11.3283ZM13.597 6.68787C13.599 6.3812 13.7057 6.08207 13.9037 5.82833C14.1016 5.57458 14.382 5.3776 14.7093 5.2623C15.0366 5.147 15.3961 5.11857 15.7424 5.18058C16.0887 5.2426 16.4062 5.39229 16.6548 5.61071C16.9033 5.82914 17.0718 6.1065 17.1389 6.40771C17.2059 6.70893 17.1686 7.02047 17.0315 7.30294C16.8945 7.58542 16.6639 7.82614 16.3689 7.99466C16.0739 8.16318 15.7278 8.25194 15.3744 8.24971C14.9004 8.24672 14.4469 8.08049 14.1136 7.78758C13.7802 7.49468 13.5944 7.0991 13.597 6.68787Z"/>
<path d="M25.7522 9.09052C26.3054 8.67992 26.7004 8.13223 26.8843 7.52081C27.0683 6.9094 27.0324 6.26347 26.7815 5.66958C26.5305 5.07569 26.0765 4.56219 25.4803 4.1979C24.884 3.83361 24.174 3.63592 23.4454 3.63132C22.7168 3.62672 22.0044 3.81544 21.4036 4.17217C20.8028 4.52891 20.3423 5.03663 20.0839 5.62731C19.8255 6.21799 19.7814 6.86341 19.9577 7.4771C20.1339 8.09078 20.522 8.64342 21.0699 9.06096C21.0071 9.10709 20.9353 9.1454 20.8814 9.19158C20.5478 9.47769 20.2825 9.81814 20.1008 10.1935C19.919 10.5688 19.8243 10.9717 19.8221 11.379C19.8208 11.5846 19.9137 11.7824 20.0804 11.9289C20.247 12.0753 20.4738 12.1584 20.7108 12.1599C20.9478 12.1614 21.1756 12.0812 21.3441 11.9369C21.5126 11.7925 21.6079 11.5959 21.6092 11.3903C21.6118 10.9791 21.8026 10.5859 22.1396 10.2972C22.4766 10.0085 22.9322 9.84803 23.4062 9.85102C23.8801 9.85401 24.3337 10.0202 24.667 10.3131C25.0003 10.606 25.1861 11.0016 25.1835 11.4129C25.1822 11.6185 25.2751 11.8163 25.4418 11.9627C25.6084 12.1092 25.8352 12.1923 26.0722 12.1938C26.3092 12.1953 26.537 12.115 26.7054 11.9707C26.8739 11.8264 26.9693 11.6298 26.9706 11.4241C26.9705 10.9826 26.8618 10.546 26.6517 10.1436C26.4415 9.74115 26.1349 9.38212 25.7522 9.09052ZM23.4355 5.19934C23.789 5.20157 24.1339 5.29469 24.4267 5.46692C24.7196 5.63916 24.9471 5.88277 25.0806 6.16695C25.214 6.45113 25.2475 6.76312 25.1766 7.06346C25.1058 7.36381 24.9338 7.63901 24.6825 7.85429C24.4312 8.06956 24.1118 8.21523 23.7648 8.27287C23.4177 8.33051 23.0586 8.29753 22.7328 8.17811C22.407 8.05869 22.1291 7.85819 21.9343 7.60197C21.7396 7.34574 21.6367 7.04529 21.6386 6.73862C21.6412 6.32739 21.832 5.93418 22.169 5.64551C22.5059 5.35684 22.9615 5.19635 23.4355 5.19934Z"/>
<path d="M24.2409 19.16L10.311 19.0721L10.5805 18.849C10.7497 18.704 10.8455 18.5066 10.8468 18.3002C10.8481 18.0937 10.7548 17.8951 10.5875 17.7481C10.4201 17.601 10.1925 17.5176 9.95452 17.5161C9.71657 17.5146 9.48786 17.5951 9.31869 17.7401L7.52188 19.2793C7.44007 19.3526 7.37575 19.4391 7.33263 19.534C7.24207 19.7222 7.24073 19.9339 7.32891 20.1232C7.37083 20.2187 7.43405 20.306 7.51493 20.3802L9.29217 21.9421C9.37477 22.0153 9.47323 22.0736 9.58186 22.1136C9.6905 22.1537 9.80716 22.1747 9.92511 22.1754C10.0431 22.1762 10.16 22.1566 10.2691 22.118C10.3782 22.0793 10.4774 22.0222 10.5609 21.9501C10.6452 21.8785 10.7122 21.7932 10.7581 21.699C10.8041 21.6048 10.8281 21.5037 10.8287 21.4013C10.8294 21.299 10.8067 21.1975 10.7619 21.1027C10.7171 21.008 10.6512 20.9218 10.5679 20.8492L10.3013 20.6227L24.2311 20.7106C24.4681 20.7121 24.6958 20.6318 24.8643 20.4875C25.0328 20.3432 25.1282 20.1466 25.1295 19.9409C25.1308 19.7353 25.0379 19.5375 24.8712 19.3911C24.7046 19.2446 24.4778 19.1615 24.2409 19.16Z"/>
<path d="M12.9029 16.212C12.8187 16.2835 12.7516 16.3689 12.7057 16.463C12.6597 16.5572 12.6357 16.6584 12.6351 16.7608C12.6344 16.8631 12.6571 16.9646 12.7019 17.0594C12.7467 17.1541 12.8126 17.2403 12.8959 17.3129C12.9785 17.3861 13.077 17.4444 13.1856 17.4844C13.2943 17.5245 13.4109 17.5455 13.5289 17.5462C13.6469 17.547 13.7638 17.5274 13.8729 17.4888C13.9821 17.4501 14.0812 17.393 14.1648 17.3209L15.9617 15.7816C16.0435 15.7084 16.1078 15.6218 16.1509 15.5269C16.2415 15.3388 16.2428 15.1271 16.1547 14.9377C16.1127 14.8423 16.0495 14.755 15.9686 14.6807L14.1913 13.1189C14.024 12.9718 13.7963 12.8884 13.5583 12.8869C13.3203 12.8854 13.0916 12.9659 12.9224 13.1109C12.7533 13.2558 12.6575 13.4532 12.6562 13.6597C12.6549 13.8661 12.7481 14.0647 12.9155 14.2118L13.1821 14.4383L6.39999 14.3955C6.163 14.394 5.93521 14.4742 5.76671 14.6186C5.59822 14.7629 5.50283 14.9595 5.50154 15.1651C5.50024 15.3707 5.59314 15.5685 5.75979 15.715C5.92645 15.8614 6.15322 15.9445 6.39021 15.946L13.1723 15.9888L12.9029 16.212Z"/>
</svg>
