<svg width="30" height="26" viewBox="0 0 30 26" xmlns="http://www.w3.org/2000/svg">
<path d="M21.8968 2.84275C21.0132 2.83717 20.1479 3.05907 19.4105 3.48038C18.6731 3.90168 18.0966 4.50348 17.754 5.20966C17.4114 5.91585 17.318 6.69471 17.4856 7.44774C17.6533 8.20078 18.0744 8.89417 18.6958 9.44024C19.3173 9.98631 20.111 10.3605 20.9767 10.5156C21.8425 10.6706 22.7413 10.5995 23.5595 10.3113C24.3778 10.023 25.0787 9.53058 25.5736 8.89621C26.0686 8.26184 26.3353 7.51403 26.3402 6.74735C26.3453 5.71963 25.8803 4.73138 25.0473 3.99939C24.2144 3.2674 23.0813 2.85144 21.8968 2.84275ZM21.8577 9.04499C21.3275 9.04164 20.8101 8.90197 20.3709 8.64362C19.9316 8.38527 19.5903 8.01985 19.3901 7.59358C19.1899 7.16731 19.1398 6.69932 19.2461 6.24881C19.3523 5.79829 19.6103 5.38548 19.9872 5.06257C20.3642 4.73966 20.8432 4.52116 21.3638 4.4347C21.8844 4.34824 22.4231 4.3977 22.9118 4.57683C23.4005 4.75596 23.8173 5.05671 24.1094 5.44105C24.4016 5.82539 24.556 6.27606 24.5531 6.73607C24.5484 7.35271 24.262 7.94212 23.7567 8.37498C23.2514 8.80784 22.5684 9.0488 21.8577 9.04499Z"/>
<path d="M23.6249 12.1574C23.3879 12.1559 23.1601 12.2361 22.9916 12.3805C22.8231 12.5248 22.7277 12.7214 22.7264 12.927L22.6775 20.6798C22.676 20.8854 22.5806 21.0819 22.4121 21.2262C22.2437 21.3705 22.016 21.4508 21.7791 21.4495L5.69594 21.348C5.45896 21.3465 5.23221 21.2634 5.06556 21.1169C4.89892 20.9704 4.80602 20.7727 4.80732 20.567L4.8954 6.612C4.897 6.40647 4.99248 6.21002 5.1609 6.06574C5.32931 5.92146 5.55692 5.84113 5.7938 5.84236L14.7289 5.89875C14.9659 5.90025 15.1937 5.82 15.3621 5.67566C15.5306 5.53133 15.626 5.33473 15.6273 5.12911C15.6286 4.92349 15.5357 4.7257 15.3691 4.57925C15.2024 4.4328 14.9757 4.34969 14.7387 4.34819L5.80359 4.2918C5.0929 4.28799 4.41 4.52895 3.90472 4.96181C3.39944 5.39467 3.11305 5.98408 3.10838 6.60072L3.0203 20.5558C3.01742 20.8613 3.08442 21.1644 3.21744 21.4475C3.35046 21.7307 3.54685 21.9882 3.79523 22.2052C4.2962 22.6431 4.97567 22.8923 5.68615 22.8985L21.7693 23C22.48 23.0038 23.1629 22.7629 23.6682 22.33C24.1735 21.8972 24.4599 21.3077 24.4645 20.6911L24.5135 12.9383C24.5148 12.7327 24.4219 12.5349 24.2552 12.3884C24.0886 12.242 23.8618 12.1589 23.6249 12.1574Z"/>
</svg>
