<svg width="30" height="26" viewBox="0 0 30 26" xmlns="http://www.w3.org/2000/svg">
<path d="M24.4473 12.6973L19.3195 9.68773C18.8899 7.33948 17.6296 5.16395 15.7131 3.46249C15.6305 3.3893 15.5321 3.331 15.4234 3.29095C15.3148 3.2509 15.1982 3.2299 15.0802 3.22916C14.9622 3.22841 14.8453 3.24794 14.7362 3.28661C14.6271 3.32528 14.5279 3.38234 14.4444 3.45448C12.5066 5.13161 11.2189 7.29107 10.7597 9.63371L5.59428 12.5783C5.47093 12.6478 5.36931 12.7426 5.29846 12.8544C5.2276 12.9662 5.18971 13.0916 5.18814 13.2192L5.16857 16.3204C5.16727 16.526 5.26017 16.7238 5.42681 16.8702C5.59346 17.0167 5.82021 17.0998 6.05719 17.1013L7.84421 17.1126C8.08118 17.1141 8.30897 17.0338 8.47745 16.8895C8.64593 16.7451 8.74131 16.5485 8.74261 16.3429C8.74391 16.1373 8.65102 15.9395 8.48437 15.7931C8.31772 15.6466 8.09097 15.5635 7.85399 15.562L6.96048 15.5564L6.97252 13.6492L10.5596 11.6017L10.5296 16.3542C10.5283 16.5598 10.6212 16.7576 10.7879 16.9041C10.9545 17.0505 11.1813 17.1336 11.4182 17.1351L18.5663 17.1802C18.8033 17.1817 19.0311 17.1015 19.1996 16.9571C19.3681 16.8128 19.4634 16.6162 19.4647 16.4106L19.4947 11.6581L23.0557 13.7507L23.0437 15.6579L22.1502 15.6522C21.9132 15.6507 21.6854 15.731 21.5169 15.8753C21.3484 16.0197 21.2531 16.2163 21.2518 16.4219C21.2505 16.6275 21.3433 16.8253 21.51 16.9717C21.6766 17.1182 21.9034 17.2013 22.1404 17.2028L23.9274 17.2141C24.1644 17.2156 24.3921 17.1353 24.5606 16.991C24.7291 16.8466 24.8245 16.65 24.8258 16.4444L24.8454 13.3433C24.8454 13.2156 24.8091 13.0898 24.7397 12.9771C24.6702 12.8644 24.5698 12.7683 24.4473 12.6973ZM17.6826 15.624L12.3215 15.5902L12.3477 11.4502C12.3676 9.12842 13.331 6.88866 15.0682 5.12533C16.7831 6.91044 17.7182 9.16219 17.7087 11.484L17.6826 15.624Z"/>
<path d="M18.5574 18.7308C18.3204 18.7293 18.0927 18.8095 17.9242 18.9539C17.7557 19.0982 17.6603 19.2948 17.659 19.5004C17.6577 19.7061 17.7506 19.9038 17.9172 20.0503C18.0839 20.1967 18.3107 20.2799 18.5476 20.2814C19.1022 20.2846 19.6423 20.437 20.0935 20.7176C20.5446 20.9981 20.8846 21.393 21.0666 21.8479L8.86058 21.7708C9.0483 21.3183 9.39327 20.9278 9.84792 20.6529C10.3026 20.3781 10.8446 20.2325 11.3991 20.2362C11.6361 20.2377 11.8639 20.1575 12.0324 20.0132C12.2009 19.8688 12.2963 19.6722 12.2976 19.4666C12.2989 19.261 12.206 19.0632 12.0393 18.9167C11.8727 18.7703 11.6459 18.6872 11.4089 18.6857C10.224 18.6782 9.08501 19.0794 8.24254 19.8011C7.40008 20.5228 6.92314 21.5058 6.91665 22.5339C6.91533 22.6359 6.93723 22.7372 6.9811 22.8319C7.02497 22.9267 7.08995 23.013 7.17231 23.086C7.34265 23.2287 7.56875 23.3105 7.80532 23.3148L22.1023 23.405C22.3393 23.4065 22.5671 23.3263 22.7356 23.1819C22.9041 23.0376 22.9995 22.841 23.0008 22.6354C23.0073 21.6073 22.5428 20.6184 21.7095 19.8861C20.8762 19.1539 19.7424 18.7383 18.5574 18.7308Z"/>
</svg>
