<svg width="30" height="26" viewBox="0 0 30 26" xmlns="http://www.w3.org/2000/svg">
<path d="M9.93422 21.1805L7.25369 21.1636L7.34177 7.20855L24.3185 7.3157C24.5554 7.3172 24.7832 7.23695 24.9517 7.09261C25.1202 6.94828 25.2156 6.75168 25.2169 6.54606C25.2182 6.34044 25.1253 6.14265 24.9586 5.9962C24.792 5.84975 24.5652 5.76664 24.3282 5.76514L23.4347 5.7595L23.4494 3.43366C23.4507 3.22804 23.3578 3.03025 23.1912 2.8838C23.0245 2.73735 22.7978 2.65424 22.5608 2.65274L8.26464 2.56251C8.02766 2.56102 7.79988 2.64126 7.6314 2.7856C7.46291 2.92993 7.36753 3.12653 7.36623 3.33215L7.35155 5.65799L6.45804 5.65235C6.22107 5.65086 5.99329 5.7311 5.8248 5.87544C5.65632 6.01978 5.56094 6.21638 5.55964 6.42199L5.46178 21.9276C5.46048 22.1332 5.55337 22.331 5.72002 22.4775C5.88667 22.6239 6.11342 22.707 6.3504 22.7085L9.92444 22.7311C10.1614 22.7326 10.3892 22.6523 10.5577 22.508C10.7262 22.3637 10.8215 22.167 10.8228 21.9614C10.8241 21.7558 10.7312 21.558 10.5646 21.4116C10.3979 21.2651 10.1712 21.182 9.93422 21.1805ZM9.14836 4.11871L21.6575 4.19766L21.6477 5.74822L9.13857 5.66927L9.14836 4.11871Z"/>
<path d="M24.3094 8.86627C24.0724 8.86477 23.8446 8.94502 23.6761 9.08935C23.5076 9.23369 23.4122 9.43029 23.4109 9.63591L23.3375 21.2651L17.9761 21.2313L18.0006 17.3549C18.0019 17.1493 17.909 16.9515 17.7424 16.805C17.5757 16.6586 17.3489 16.5754 17.1119 16.5739L13.5377 16.5514C13.3007 16.5499 13.0729 16.6301 12.9044 16.7745C12.7359 16.9188 12.6405 17.1154 12.6392 17.321L12.6099 21.9727C12.6086 22.1783 12.7015 22.3761 12.8681 22.5226C13.0348 22.669 13.2616 22.7521 13.4985 22.7536C13.7355 22.7551 13.9633 22.6749 14.1318 22.5305C14.3003 22.3862 14.3957 22.1896 14.397 21.984L14.4215 18.1076L16.2086 18.1189L16.1841 21.9953C16.1828 22.2009 16.2757 22.3987 16.4424 22.5451C16.609 22.6916 16.8358 22.7747 17.0728 22.7762L24.2213 22.8213C24.4583 22.8228 24.6861 22.7426 24.8546 22.5982C25.0231 22.4539 25.1185 22.2573 25.1198 22.0517L25.198 9.64718C25.1993 9.44157 25.1064 9.24378 24.9398 9.09733C24.7731 8.95088 24.5464 8.86776 24.3094 8.86627Z"/>
<path d="M20.7355 8.84371L10.0128 8.77603C9.77578 8.77454 9.54798 8.85478 9.37949 8.99912C9.21099 9.14346 9.11561 9.34006 9.11431 9.54567C9.11301 9.75129 9.20591 9.94908 9.37257 10.0955C9.53923 10.242 9.76599 10.3251 10.003 10.3266L20.7257 10.3943C20.9627 10.3958 21.1905 10.3155 21.359 10.1712C21.5275 10.0268 21.6229 9.83025 21.6242 9.62463C21.6255 9.41901 21.5326 9.22122 21.3659 9.07477C21.1993 8.92832 20.9725 8.8452 20.7355 8.84371Z"/>
<path d="M20.716 11.9448L9.99323 11.8772C9.75625 11.8757 9.52845 11.9559 9.35996 12.1002C9.19146 12.2446 9.09608 12.4412 9.09478 12.6468C9.09348 12.8524 9.18638 13.0502 9.35304 13.1967C9.51969 13.3431 9.74646 13.4262 9.98345 13.4277L20.7062 13.4954C20.9432 13.4969 21.171 13.4166 21.3395 13.2723C21.508 13.128 21.6034 12.9314 21.6047 12.7257C21.606 12.5201 21.5131 12.3223 21.3464 12.1759C21.1797 12.0294 20.953 11.9463 20.716 11.9448Z"/>
</svg>
