<svg width="30" height="26" viewBox="0 0 30 26" xmlns="http://www.w3.org/2000/svg">
<path d="M18.5213 6.1314C18.5279 5.61137 18.3858 5.09801 18.1081 4.63857C17.8304 4.17913 17.426 3.78835 16.9321 3.50219C16.4382 3.21604 15.8707 3.04369 15.2818 3.00101C14.6928 2.95833 14.1014 3.04669 13.5619 3.25796C13.0224 3.46922 12.5521 3.79661 12.1943 4.21C11.8366 4.6234 11.6028 5.10951 11.5146 5.62363C11.4263 6.13774 11.4864 6.66335 11.6893 7.15208C11.8923 7.64081 12.2315 8.07697 12.6758 8.42044C12.2949 8.70722 11.9882 9.06238 11.776 9.46216C11.5639 9.86194 11.4512 10.2971 11.4456 10.7386C11.4443 10.9442 11.5358 11.142 11.7001 11.2884C11.8644 11.4349 12.0879 11.518 12.3215 11.5194C12.5551 11.5209 12.7796 11.4407 12.9457 11.2963C13.1118 11.152 13.2059 10.9553 13.2072 10.7497C13.2098 10.3385 13.3979 9.94527 13.7301 9.65657C14.0623 9.36787 14.5114 9.20733 14.9786 9.21028C15.4458 9.21323 15.8928 9.37942 16.2213 9.67229C16.5499 9.96517 16.733 10.3607 16.7304 10.772C16.7291 10.9776 16.8206 11.1754 16.9849 11.3218C17.1492 11.4682 17.3727 11.5513 17.6063 11.5528C17.8399 11.5543 18.0644 11.474 18.2305 11.3297C18.3966 11.1853 18.4907 10.9887 18.492 10.7831C18.4919 10.3416 18.3848 9.90499 18.1777 9.50257C17.9706 9.10014 17.6683 8.74114 17.2911 8.44957C17.672 8.16278 17.9788 7.80762 18.1909 7.40784C18.4031 7.00806 18.5157 6.57288 18.5213 6.1314ZM13.2365 6.09804C13.2385 5.79137 13.3437 5.49224 13.5389 5.23847C13.734 4.98471 14.0104 4.7877 14.333 4.67238C14.6557 4.55705 15.0101 4.52858 15.3514 4.59056C15.6927 4.65255 16.0057 4.80221 16.2507 5.02061C16.4957 5.23902 16.6617 5.51636 16.7278 5.81757C16.7939 6.11878 16.757 6.43032 16.6219 6.71281C16.4868 6.99529 16.2595 7.23603 15.9687 7.40458C15.6779 7.57313 15.3368 7.66192 14.9884 7.65972C14.5211 7.65677 14.0741 7.49058 13.7456 7.19771C13.4171 6.90484 13.2339 6.50928 13.2365 6.09804Z"/>
<path d="M10.5213 17.7106C10.5279 17.1905 10.3858 16.6772 10.1081 16.2177C9.83043 15.7583 9.42602 15.3675 8.93212 15.0814C8.43823 14.7952 7.8707 14.6229 7.28177 14.5802C6.69283 14.5375 6.1014 14.6259 5.56188 14.8371C5.02236 15.0484 4.55209 15.3758 4.19433 15.7892C3.83657 16.2026 3.60282 16.6887 3.51458 17.2028C3.42633 17.7169 3.48643 18.2425 3.68934 18.7312C3.89226 19.22 4.23147 19.6561 4.67577 19.9996L4.48997 20.1302C4.16108 20.4164 3.89956 20.7568 3.72036 21.1322C3.54117 21.5075 3.4478 21.9104 3.44559 22.3178C3.44429 22.5234 3.53584 22.7212 3.70011 22.8676C3.86437 23.014 4.08789 23.0971 4.32149 23.0986C4.5551 23.1001 4.77965 23.0198 4.94575 22.8755C5.11184 22.7311 5.20589 22.5345 5.20719 22.3289C5.20978 21.9177 5.39787 21.5244 5.73006 21.2357C6.06226 20.947 6.51136 20.7865 6.97857 20.7894C7.44577 20.7924 7.89281 20.9586 8.22134 21.2515C8.54987 21.5443 8.73297 21.9399 8.73038 22.3511C8.72908 22.5567 8.82063 22.7545 8.9849 22.901C9.14916 23.0474 9.37268 23.1305 9.60628 23.132C9.83988 23.1334 10.0644 23.0532 10.2305 22.9088C10.3966 22.7645 10.4907 22.5679 10.492 22.3622C10.4919 21.9207 10.3848 21.4842 10.1777 21.0817C9.97061 20.6793 9.66835 20.3203 9.29115 20.0287C9.672 19.7419 9.97876 19.3868 10.1909 18.987C10.4031 18.5872 10.5157 18.152 10.5213 17.7106ZM7.00793 16.1378C7.35634 16.14 7.69635 16.2331 7.98497 16.4053C8.27359 16.5775 8.49785 16.8211 8.62939 17.1052C8.76093 17.3894 8.79385 17.7014 8.72398 18.0017C8.65411 18.3021 8.48459 18.5773 8.23686 18.7926C7.98912 19.0079 7.67431 19.1536 7.33221 19.2113C6.99012 19.2689 6.63611 19.236 6.31496 19.1166C5.99382 18.9972 5.71995 18.7967 5.52799 18.5405C5.33603 18.2843 5.23461 17.9839 5.23654 17.6772C5.23914 17.266 5.42722 16.8728 5.75942 16.5841C6.09162 16.2954 6.54072 16.1348 7.00793 16.1378Z"/>
<path d="M25.1445 20.1289C25.6898 19.7183 26.0792 19.1705 26.2606 18.5591C26.442 17.9477 26.4067 17.3018 26.1594 16.7079C25.9121 16.114 25.4646 15.6006 24.8769 15.2363C24.2892 14.8721 23.5894 14.6745 22.8712 14.6699C22.1529 14.6654 21.4507 14.8542 20.8584 15.211C20.2662 15.5678 19.8123 16.0755 19.5575 16.6662C19.3027 17.2569 19.2592 17.9023 19.4329 18.516C19.6065 19.1297 19.989 19.6823 20.5291 20.0998C20.1482 20.3866 19.8415 20.7417 19.6293 21.1415C19.4172 21.5413 19.3045 21.9765 19.2989 22.418C19.2976 22.6236 19.3892 22.8214 19.5534 22.9678C19.7177 23.1142 19.9412 23.1973 20.1748 23.1988C20.4084 23.2003 20.633 23.12 20.7991 22.9757C20.9652 22.8313 21.0592 22.6347 21.0605 22.4291C21.0631 22.0178 21.2512 21.6246 21.5834 21.3359C21.9156 21.0472 22.3647 20.8867 22.8319 20.8896C23.2991 20.8926 23.7461 21.0588 24.0747 21.3516C24.4032 21.6445 24.5863 22.0401 24.5837 22.4513C24.5824 22.6569 24.674 22.8547 24.8382 23.0011C25.0025 23.1476 25.226 23.2307 25.4596 23.2321C25.6932 23.2336 25.9178 23.1534 26.0839 23.009C26.25 22.8647 26.344 22.668 26.3453 22.4624C26.3453 22.0209 26.2381 21.5843 26.031 21.1819C25.8239 20.7795 25.5217 20.4205 25.1445 20.1289ZM21.0899 17.7774C21.0918 17.4707 21.197 17.1716 21.3922 16.9178C21.5874 16.6641 21.8637 16.4671 22.1864 16.3517C22.509 16.2364 22.8634 16.2079 23.2047 16.2699C23.5461 16.3319 23.859 16.4816 24.104 16.7C24.349 16.9184 24.5151 17.1957 24.5811 17.4969C24.6472 17.7981 24.6103 18.1097 24.4752 18.3922C24.3401 18.6746 24.1128 18.9154 23.822 19.0839C23.5313 19.2525 23.1901 19.3413 22.8417 19.3391C22.3745 19.3361 21.9274 19.1699 21.5989 18.8771C21.2704 18.5842 21.0873 18.1886 21.0899 17.7774Z"/>
<path d="M16.6912 16.9742L15.8104 16.9687L15.8349 13.0923C15.8362 12.8866 15.7446 12.6889 15.5804 12.5424C15.4161 12.396 15.1926 12.3129 14.959 12.3114C14.7254 12.3099 14.5008 12.3902 14.3347 12.5346C14.1686 12.6789 14.0746 12.8755 14.0733 13.0811L14.0488 16.9575L13.168 16.952C12.9344 16.9505 12.7099 17.0308 12.5438 17.1751C12.3777 17.3195 12.2836 17.5161 12.2823 17.7217C12.281 17.9273 12.3726 18.1251 12.5369 18.2715C12.7011 18.418 12.9246 18.5011 13.1582 18.5025L16.6814 18.5248C16.915 18.5262 17.1396 18.446 17.3057 18.3016C17.4718 18.1573 17.5658 17.9607 17.5671 17.7551C17.5684 17.5494 17.4769 17.3517 17.3126 17.2052C17.1483 17.0588 16.9248 16.9757 16.6912 16.9742Z"/>
</svg>
